<svg width="1600" height="520" viewBox="0 0 1600 520" fill="none" xmlns="http://www.w3.org/2000/svg">
  <defs>
    <linearGradient id="bg" x1="0" y1="0" x2="1600" y2="520" gradientUnits="userSpaceOnUse">
      <stop offset="0%" stop-color="#0F172A"/>
      <stop offset="38%" stop-color="#4F46E5"/>
      <stop offset="72%" stop-color="#06B6D4"/>
      <stop offset="100%" stop-color="#22C55E"/>
    </linearGradient>
    <radialGradient id="glow1" cx="0" cy="0" r="1" gradientUnits="userSpaceOnUse" gradientTransform="translate(360 140) rotate(90) scale(220 220)">
      <stop offset="0%" stop-color="white" stop-opacity="0.28"/>
      <stop offset="100%" stop-color="white" stop-opacity="0"/>
    </radialGradient>
    <radialGradient id="glow2" cx="0" cy="0" r="1" gradientUnits="userSpaceOnUse" gradientTransform="translate(1270 360) rotate(90) scale(260 260)">
      <stop offset="0%" stop-color="white" stop-opacity="0.18"/>
      <stop offset="100%" stop-color="white" stop-opacity="0"/>
    </radialGradient>
    <filter id="shadow" x="-10%" y="-20%" width="120%" height="150%">
      <feDropShadow dx="0" dy="20" stdDeviation="28" flood-color="#020617" flood-opacity="0.28"/>
    </filter>
  </defs>

  <rect width="1600" height="520" rx="44" fill="url(#bg)"/>
  <circle cx="290" cy="120" r="210" fill="url(#glow1)"/>
  <circle cx="1300" cy="360" r="250" fill="url(#glow2)"/>

  <g filter="url(#shadow)">
    <rect x="110" y="108" width="156" height="156" rx="36" fill="white" fill-opacity="0.16"/>
    <path d="M145 160C145 151.163 152.163 144 161 144H215C223.837 144 231 151.163 231 160V212C231 220.837 223.837 228 215 228H161C152.163 228 145 220.837 145 212V160Z" fill="white" fill-opacity="0.92"/>
    <path d="M168 183H208" stroke="#4F46E5" stroke-width="10" stroke-linecap="round"/>
    <path d="M168 199H198" stroke="#06B6D4" stroke-width="10" stroke-linecap="round"/>
  </g>

  <text x="330" y="190" fill="white" font-family="Arial, 'PingFang SC', 'Microsoft YaHei', sans-serif" font-size="68" font-weight="800" letter-spacing="0.5">StudySage Pro</text>
  <text x="330" y="248" fill="white" fill-opacity="0.92" font-family="Arial, 'PingFang SC', 'Microsoft YaHei', sans-serif" font-size="30" font-weight="600">智学题库专家 · 多学科学习资料自动爬取与智能整理系统</text>
  <text x="330" y="300" fill="white" fill-opacity="0.84" font-family="Arial, 'PingFang SC', 'Microsoft YaHei', sans-serif" font-size="22" font-weight="400">Python · GUI · Scrapy · Excel / Word / PDF 导出 · AI 可扩展</text>

  <g opacity="0.9">
    <rect x="330" y="356" width="168" height="48" rx="24" fill="white" fill-opacity="0.16"/>
    <text x="414" y="388" text-anchor="middle" fill="white" font-family="Arial, 'PingFang SC', 'Microsoft YaHei', sans-serif" font-size="18" font-weight="700">AUTO CRAWL</text>

    <rect x="512" y="356" width="156" height="48" rx="24" fill="white" fill-opacity="0.16"/>
    <text x="590" y="388" text-anchor="middle" fill="white" font-family="Arial, 'PingFang SC', 'Microsoft YaHei', sans-serif" font-size="18" font-weight="700">SMART SORT</text>

    <rect x="682" y="356" width="156" height="48" rx="24" fill="white" fill-opacity="0.16"/>
    <text x="760" y="388" text-anchor="middle" fill="white" font-family="Arial, 'PingFang SC', 'Microsoft YaHei', sans-serif" font-size="18" font-weight="700">AI READY</text>
  </g>
</svg>
